<mxfile host="Electron" modified="2023-09-14T05:56:16.843Z" agent="Mozilla/5.0 (Windows NT 10.0; Win64; x64) AppleWebKit/537.36 (KHTML, like Gecko) draw.io/21.6.5 Chrome/114.0.5735.243 Electron/25.3.1 Safari/537.36" etag="I-1b4wFgy-klhwqviweT" version="21.6.5" type="device">
  <diagram name="Page-1" id="Kc-bbg_Cu5FP5rEg1Z3j">
    <mxGraphModel dx="1036" dy="606" grid="1" gridSize="10" guides="1" tooltips="1" connect="1" arrows="1" fold="1" page="1" pageScale="1" pageWidth="827" pageHeight="1169" math="0" shadow="0">
      <root>
        <mxCell id="0" />
        <mxCell id="1" parent="0" />
        <mxCell id="bDf-cAMHqaGHw8WwR_vP-26" value="" style="group" vertex="1" connectable="0" parent="1">
          <mxGeometry x="190" y="40" width="870" height="500" as="geometry" />
        </mxCell>
        <mxCell id="bDf-cAMHqaGHw8WwR_vP-2" value="" style="rounded=0;whiteSpace=wrap;html=1;dashed=1;dashPattern=12 12;fillColor=#f9f7ed;strokeColor=#36393d;" vertex="1" parent="bDf-cAMHqaGHw8WwR_vP-26">
          <mxGeometry width="870" height="500.00000000000006" as="geometry" />
        </mxCell>
        <mxCell id="bDf-cAMHqaGHw8WwR_vP-3" value="&lt;b&gt;EmailScanner - Service&lt;/b&gt;&lt;br&gt;&lt;br&gt;Publish travel related email to queue from user mailbox." style="rounded=1;whiteSpace=wrap;html=1;fillColor=#dae8fc;strokeColor=#6c8ebf;fontStyle=0" vertex="1" parent="bDf-cAMHqaGHw8WwR_vP-26">
          <mxGeometry x="39.10112359550561" y="36.36363636363637" width="146.62921348314606" height="127.27272727272727" as="geometry" />
        </mxCell>
        <mxCell id="bDf-cAMHqaGHw8WwR_vP-11" value="" style="shape=cylinder3;whiteSpace=wrap;html=1;boundedLbl=1;backgroundOutline=1;size=12.009999999999991;rotation=90;fillColor=#fff2cc;strokeColor=#d6b656;" vertex="1" parent="bDf-cAMHqaGHw8WwR_vP-26">
          <mxGeometry x="344.08988764044943" y="40.90909090909091" width="46.92134831460674" height="122.72727272727273" as="geometry" />
        </mxCell>
        <mxCell id="bDf-cAMHqaGHw8WwR_vP-12" value="Travel relevent email" style="text;html=1;strokeColor=none;fillColor=none;align=center;verticalAlign=middle;whiteSpace=wrap;rounded=0;" vertex="1" parent="bDf-cAMHqaGHw8WwR_vP-26">
          <mxGeometry x="313.78651685393254" y="93.63636363636364" width="97.75280898876404" height="20.454545454545453" as="geometry" />
        </mxCell>
        <mxCell id="bDf-cAMHqaGHw8WwR_vP-14" value="Publish" style="endArrow=classic;html=1;rounded=0;entryX=0.5;entryY=1;entryDx=0;entryDy=0;entryPerimeter=0;dashed=1;" edge="1" parent="bDf-cAMHqaGHw8WwR_vP-26" target="bDf-cAMHqaGHw8WwR_vP-11">
          <mxGeometry width="50" height="50" relative="1" as="geometry">
            <mxPoint x="185.73033707865167" y="100" as="sourcePoint" />
            <mxPoint x="234.60674157303367" y="54.54545454545455" as="targetPoint" />
          </mxGeometry>
        </mxCell>
        <mxCell id="bDf-cAMHqaGHw8WwR_vP-15" value="&lt;b&gt;EmailParser - Service&lt;/b&gt;&lt;br&gt;&lt;br&gt;Extract data from email and publish to queue" style="rounded=1;whiteSpace=wrap;html=1;fillColor=#dae8fc;strokeColor=#6c8ebf;" vertex="1" parent="bDf-cAMHqaGHw8WwR_vP-26">
          <mxGeometry x="553.2808988764044" y="34.090909090909086" width="146.62921348314606" height="127.27272727272727" as="geometry" />
        </mxCell>
        <mxCell id="bDf-cAMHqaGHw8WwR_vP-16" value="Subscribe" style="endArrow=classic;html=1;rounded=0;dashed=1;entryX=0;entryY=0.5;entryDx=0;entryDy=0;" edge="1" parent="bDf-cAMHqaGHw8WwR_vP-26">
          <mxGeometry x="-0.0004" y="-1" width="50" height="50" relative="1" as="geometry">
            <mxPoint x="435" y="100" as="sourcePoint" />
            <mxPoint x="552.3033707865168" y="97.72727272727273" as="targetPoint" />
            <Array as="points">
              <mxPoint x="440.8651685393258" y="100" />
              <mxPoint x="522.9775280898876" y="98.18181818181817" />
            </Array>
            <mxPoint as="offset" />
          </mxGeometry>
        </mxCell>
        <mxCell id="bDf-cAMHqaGHw8WwR_vP-17" value="" style="shape=cylinder3;whiteSpace=wrap;html=1;boundedLbl=1;backgroundOutline=1;size=12.009999999999991;rotation=90;fillColor=#fff2cc;strokeColor=#d6b656;" vertex="1" parent="bDf-cAMHqaGHw8WwR_vP-26">
          <mxGeometry x="603.1348314606741" y="209.0909090909091" width="46.92134831460674" height="122.72727272727273" as="geometry" />
        </mxCell>
        <mxCell id="bDf-cAMHqaGHw8WwR_vP-19" value="" style="endArrow=classic;html=1;rounded=0;entryX=0;entryY=0.5;entryDx=0;entryDy=0;entryPerimeter=0;exitX=0.5;exitY=1;exitDx=0;exitDy=0;dashed=1;" edge="1" parent="bDf-cAMHqaGHw8WwR_vP-26" source="bDf-cAMHqaGHw8WwR_vP-15" target="bDf-cAMHqaGHw8WwR_vP-17">
          <mxGeometry width="50" height="50" relative="1" as="geometry">
            <mxPoint x="566.9662921348314" y="227.27272727272725" as="sourcePoint" />
            <mxPoint x="615.8426966292135" y="181.8181818181818" as="targetPoint" />
          </mxGeometry>
        </mxCell>
        <mxCell id="bDf-cAMHqaGHw8WwR_vP-20" value="Travel data" style="text;html=1;strokeColor=none;fillColor=none;align=center;verticalAlign=middle;whiteSpace=wrap;rounded=0;" vertex="1" parent="bDf-cAMHqaGHw8WwR_vP-26">
          <mxGeometry x="577.7191011235955" y="260.2272727272727" width="97.75280898876404" height="20.454545454545453" as="geometry" />
        </mxCell>
        <mxCell id="bDf-cAMHqaGHw8WwR_vP-21" value="&lt;b&gt;UpdateMerger - Service&lt;/b&gt;&lt;br&gt;&lt;br&gt;Clean and unify travel data" style="rounded=1;whiteSpace=wrap;html=1;fillColor=#dae8fc;strokeColor=#6c8ebf;" vertex="1" parent="bDf-cAMHqaGHw8WwR_vP-26">
          <mxGeometry x="559.1460674157303" y="345.4545454545455" width="146.62921348314606" height="127.27272727272727" as="geometry" />
        </mxCell>
        <mxCell id="bDf-cAMHqaGHw8WwR_vP-22" value="Database" style="shape=datastore;whiteSpace=wrap;html=1;fillColor=#dae8fc;strokeColor=#6c8ebf;" vertex="1" parent="bDf-cAMHqaGHw8WwR_vP-26">
          <mxGeometry x="782.02" y="381.82" width="77.98" height="88.18" as="geometry" />
        </mxCell>
        <mxCell id="bDf-cAMHqaGHw8WwR_vP-23" value="" style="endArrow=classic;html=1;rounded=0;" edge="1" parent="bDf-cAMHqaGHw8WwR_vP-26" source="bDf-cAMHqaGHw8WwR_vP-21">
          <mxGeometry width="50" height="50" relative="1" as="geometry">
            <mxPoint x="635.3932584269661" y="408.6363636363636" as="sourcePoint" />
            <mxPoint x="782.0224719101124" y="409.09090909090907" as="targetPoint" />
          </mxGeometry>
        </mxCell>
        <mxCell id="bDf-cAMHqaGHw8WwR_vP-24" value="" style="endArrow=classic;html=1;rounded=0;dashed=1;" edge="1" parent="bDf-cAMHqaGHw8WwR_vP-26">
          <mxGeometry width="50" height="50" relative="1" as="geometry">
            <mxPoint x="626.5955056179774" y="290.90909090909093" as="sourcePoint" />
            <mxPoint x="626.1067415730337" y="345.4545454545455" as="targetPoint" />
          </mxGeometry>
        </mxCell>
        <mxCell id="bDf-cAMHqaGHw8WwR_vP-27" value="Service -&lt;br&gt;Serverless functions" style="rounded=1;whiteSpace=wrap;html=1;fillColor=#dae8fc;strokeColor=#6c8ebf;fontStyle=0" vertex="1" parent="1">
          <mxGeometry x="19.99842696629213" y="86.36363636363636" width="124.71910112359551" height="127.27272727272727" as="geometry" />
        </mxCell>
        <mxCell id="bDf-cAMHqaGHw8WwR_vP-28" value="Synchronous" style="endArrow=classic;html=1;rounded=0;fontStyle=1" edge="1" parent="1">
          <mxGeometry width="50" height="50" relative="1" as="geometry">
            <mxPoint x="22.22033707865168" y="270" as="sourcePoint" />
            <mxPoint x="160" y="270" as="targetPoint" />
          </mxGeometry>
        </mxCell>
        <mxCell id="bDf-cAMHqaGHw8WwR_vP-30" value="Asynchronous" style="endArrow=classic;html=1;rounded=0;dashed=1;fontStyle=1" edge="1" parent="1">
          <mxGeometry width="50" height="50" relative="1" as="geometry">
            <mxPoint x="22.22033707865168" y="338" as="sourcePoint" />
            <mxPoint x="160" y="338" as="targetPoint" />
          </mxGeometry>
        </mxCell>
        <mxCell id="bDf-cAMHqaGHw8WwR_vP-31" value="Legend" style="text;html=1;strokeColor=none;fillColor=none;align=center;verticalAlign=middle;whiteSpace=wrap;rounded=0;fontStyle=1" vertex="1" parent="1">
          <mxGeometry x="10" y="20" width="60" height="30" as="geometry" />
        </mxCell>
      </root>
    </mxGraphModel>
  </diagram>
</mxfile>
